<svg width="40" height="40" viewBox="0 0 40 40" fill="none" xmlns="http://www.w3.org/2000/svg">
<g clip-path="url(#clip0_198_537)">
<path d="M19.5 22.5C18.3954 22.5 17.5 21.6046 17.5 20.5V12C17.5 10.8954 18.3954 10 19.5 10H20.5C21.6046 10 22.5 10.8954 22.5 12V20.5C22.5 21.6046 21.6046 22.5 20.5 22.5H19.5ZM20 30C20.663 30 21.2989 29.7366 21.7678 29.2678C22.2366 28.7989 22.5 28.163 22.5 27.5C22.5 26.837 22.2366 26.2011 21.7678 25.7322C21.2989 25.2634 20.663 25 20 25C19.337 25 18.7011 25.2634 18.2322 25.7322C17.7634 26.2011 17.5 26.837 17.5 27.5C17.5 28.163 17.7634 28.7989 18.2322 29.2678C18.7011 29.7366 19.337 30 20 30Z" fill="#B01C32"/>
<path d="M0 20C0 14.6957 2.10714 9.60859 5.85786 5.85786C9.60859 2.10714 14.6957 0 20 0C25.3043 0 30.3914 2.10714 34.1421 5.85786C37.8929 9.60859 40 14.6957 40 20C40 25.3043 37.8929 30.3914 34.1421 34.1421C30.3914 37.8929 25.3043 40 20 40C14.6957 40 9.60859 37.8929 5.85786 34.1421C2.10714 30.3914 0 25.3043 0 20ZM20 5C18.0302 5 16.0796 5.38799 14.2597 6.14181C12.4399 6.89563 10.7863 8.00052 9.3934 9.3934C8.00052 10.7863 6.89563 12.4399 6.14181 14.2597C5.38799 16.0796 5 18.0302 5 20C5 21.9698 5.38799 23.9204 6.14181 25.7403C6.89563 27.5601 8.00052 29.2137 9.3934 30.6066C10.7863 31.9995 12.4399 33.1044 14.2597 33.8582C16.0796 34.612 18.0302 35 20 35C23.9782 35 27.7936 33.4196 30.6066 30.6066C33.4196 27.7936 35 23.9782 35 20C35 16.0218 33.4196 12.2064 30.6066 9.3934C27.7936 6.58035 23.9782 5 20 5Z" fill="#B01C32"/>
</g>
<defs>
<clipPath id="clip0_198_537">
<rect width="40" height="40" fill="white"/>
</clipPath>
</defs>
</svg>
