<svg width="36" height="35" viewBox="0 0 36 35" fill="none" xmlns="http://www.w3.org/2000/svg">
<path d="M27.86 7.95C29.4501 9.58269 30.6091 11.5853 31.2325 13.7775H35.5V21.28H31.2325C30.6099 23.474 29.4508 25.4784 27.86 27.1125L29.9975 30.8125L23.5025 34.5625L21.37 30.8625C19.1588 31.4202 16.8437 31.4202 14.6325 30.8625L12.4975 34.5625L6.0025 30.8125L8.14 27.1125C6.54915 25.4784 5.39014 23.474 4.7675 21.28H0.5V13.78H4.7675C5.39014 11.586 6.54915 9.58161 8.14 7.9475L6 4.25L12.4925 0.5H12.5L14.635 4.195C16.8462 3.6373 19.1613 3.6373 21.3725 4.195L23.5 0.5H23.505L30 4.25L27.8625 7.95H27.86ZM25.5 17.53C25.5 15.5409 24.7098 13.6332 23.3033 12.2267C21.8968 10.8202 19.9891 10.03 18 10.03C16.0109 10.03 14.1032 10.8202 12.6967 12.2267C11.2902 13.6332 10.5 15.5409 10.5 17.53C10.5 19.5191 11.2902 21.4268 12.6967 22.8333C14.1032 24.2398 16.0109 25.03 18 25.03C19.9891 25.03 21.8968 24.2398 23.3033 22.8333C24.7098 21.4268 25.5 19.5191 25.5 17.53Z" fill="#B01C32"/>
</svg>
