<svg width="40" height="40" viewBox="0 0 40 40" fill="none" xmlns="http://www.w3.org/2000/svg">
<g clip-path="url(#clip0_193_432)">
<path d="M25.75 20.5L23.5 22.75L25.75 25L22.75 28L33.5 38.75C35 40.25 37.25 40.25 38.75 38.75C40.25 37.25 40.25 35 38.75 33.5L25.75 20.5ZM35.5 37.5C34.5 37.5 33.5 36.75 33.5 35.5C33.5 34.5 34.25 33.5 35.5 33.5C36.75 33.5 37.5 34.25 37.5 35.5C37.5 36.75 36.75 37.5 35.5 37.5ZM9 20L11.25 18.5L15 14.25L17.25 16.5L19.5 14.25L19.25 14C19.75 12.75 20 11.5 20 10C20 4.5 15.5 0 10 0C8.5 0 7.25 0.25 6 0.75L13.25 8L8 13.25L0.75 6C0.25 7.25 0 8.5 0 10C0 15.25 4 19.25 9 20Z" fill="#B01C32"/>
<path d="M20 27L22.25 25L20 22.75L34.25 8.5L37.25 7.5L40 2L38.25 0.25L32.5 2.75L31.25 5.75L17.25 20L15 17.75L13 20C13 20 15 21.5 12.75 23.75C11.5 25 9.5 23.5 5.75 27.25L0.5 32.5C0.5 32.5 -1 35 2 38C5 41 7.5 39.5 7.5 39.5L12.75 34.25C16.25 30.75 15 28.5 16 27.5C18.25 25.25 20 27 20 27ZM12.25 26L14 27.75L4.5 37.25L2.75 35.5L12.25 26Z" fill="#B01C32"/>
</g>
<defs>
<clipPath id="clip0_193_432">
<rect width="40" height="40" fill="white"/>
</clipPath>
</defs>
</svg>
