<svg width="50" height="50" viewBox="0 0 50 50" fill="none" xmlns="http://www.w3.org/2000/svg">
<path d="M38.75 42.5H21.0625C21.45 41.7375 21.7775 40.905 22.0225 40H23.75V26.25H17.4625C16.1025 25.6175 14.9125 24.6075 14.0875 23.75H23.75V11.25C23.7501 10.9947 23.6721 10.7455 23.5264 10.5359C23.3807 10.3263 23.1743 10.1663 22.935 10.0775L22.725 10.02L22.5 9.99997H11.25C10.9574 9.99988 10.6741 10.1024 10.4494 10.2897C10.2246 10.477 10.0727 10.7372 10.02 11.025L10 11.25V22.7075C9.42518 22.902 8.90616 23.2332 8.4875 23.6725C8.2025 23.9725 7.87 24.295 7.5 24.615V11.25C7.50004 10.3178 7.8473 9.419 8.47405 8.72893C9.10079 8.03886 9.9621 7.60697 10.89 7.51747L11.25 7.49997H22.5C23.4318 7.49996 24.3303 7.84686 25.0203 8.4731C25.7103 9.09933 26.1424 9.96002 26.2325 10.8875L26.25 11.25V11.885L31.7225 6.21247C32.3675 5.54354 33.2378 5.13789 34.1648 5.07415C35.0919 5.0104 36.0095 5.29311 36.74 5.86747L37.03 6.11997L43.9225 12.9325C44.5843 13.5867 44.9792 14.4636 45.0305 15.3927C45.0818 16.3219 44.7858 17.2369 44.2 17.96L43.9425 18.25L38.165 23.75H38.75C39.6818 23.75 40.5803 24.0969 41.2703 24.7231C41.9603 25.3493 42.3924 26.21 42.4825 27.1375L42.5 27.5V38.75C42.5 39.6818 42.1531 40.5802 41.5269 41.2702C40.9006 41.9603 40.0399 42.3924 39.1125 42.4825L38.75 42.5ZM38.75 26.25H26.25V40H38.75C39.0426 40.0001 39.3259 39.8975 39.5506 39.7103C39.7754 39.523 39.9273 39.2628 39.98 38.975L40 38.75V27.5C40.0001 27.2074 39.8976 26.9241 39.7103 26.6993C39.523 26.4746 39.2628 26.3226 38.975 26.27L38.75 26.25ZM26.25 19.275V23.75H30.725L26.25 19.275ZM12.2 25.4C13.47 26.73 15.91 28.8475 18.91 29.28C19.2055 29.318 19.4776 29.4603 19.6775 29.6812C19.8773 29.9021 19.9917 30.1872 20 30.485V36.2925C20 44.0975 13.04 46.93 11.535 47.45C11.3507 47.5156 11.1493 47.5156 10.965 47.45C9.46 46.93 2.5 44.1 2.5 36.2925V30.485C2.50829 30.1872 2.62266 29.9021 2.82251 29.6812C3.02235 29.4603 3.29453 29.318 3.59 29.28C6.59 28.8475 9.0275 26.73 10.2975 25.3975C10.4219 25.2712 10.5702 25.171 10.7337 25.1026C10.8973 25.0342 11.0727 24.9989 11.25 24.9989C11.4273 24.9989 11.6027 25.0342 11.7663 25.1026C11.9298 25.171 12.0781 25.2712 12.2025 25.3975" fill="#B01C32"/>
</svg>
