<svg width="50" height="50" viewBox="0 0 50 50" fill="none" xmlns="http://www.w3.org/2000/svg">
<path d="M6.25 31.25C6.25 36.8844 11.1094 42.6656 19.4438 43.6156C18.5468 42.5084 17.791 41.2938 17.1937 40C12.1312 38.5406 9.375 34.775 9.375 31.25V29.6875C9.375 29.2731 9.53962 28.8757 9.83265 28.5827C10.1257 28.2896 10.5231 28.125 10.9375 28.125H16.2719C16.5823 27.0333 16.9917 25.9917 17.5 25H10.9375C9.6943 25 8.50201 25.4939 7.62294 26.3729C6.74386 27.252 6.25 28.4443 6.25 29.6875V31.25ZM30.4688 13.2813C30.4667 14.175 30.3375 15.0292 30.0813 15.8438C28.5879 16.0827 27.1326 16.5177 25.7531 17.1375C26.682 16.2006 27.2408 14.9594 27.3266 13.6429C27.4124 12.3263 27.0193 11.0231 26.2199 9.97357C25.4204 8.92402 24.2685 8.19886 22.9765 7.93178C21.6845 7.6647 20.3394 7.87371 19.1894 8.52027C18.0393 9.16683 17.1618 10.2074 16.7185 11.45C16.2753 12.6927 16.2962 14.0537 16.7775 15.2821C17.2587 16.5105 18.1678 17.5236 19.3372 18.1345C20.5066 18.7454 21.8574 18.9129 23.1406 18.6063C21.8902 19.4568 20.7575 20.4687 19.7719 21.6156C18.2105 21.2223 16.791 20.3984 15.675 19.2378C14.559 18.0771 13.7913 16.6264 13.4595 15.0508C13.1277 13.4752 13.2451 11.8381 13.7982 10.3259C14.3513 8.81375 15.318 7.48733 16.5881 6.49771C17.8583 5.5081 19.3808 4.89507 20.9823 4.72846C22.5838 4.56185 24.1999 4.84836 25.6466 5.55534C27.0932 6.26232 28.3122 7.36136 29.1648 8.72729C30.0173 10.0932 30.4691 11.6711 30.4688 13.2813ZM46.875 32.8125C46.875 34.6592 46.5113 36.4879 45.8046 38.194C45.0979 39.9001 44.062 41.4504 42.7562 42.7562C41.4504 44.062 39.9001 45.0979 38.194 45.8046C36.4878 46.5113 34.6592 46.875 32.8125 46.875C30.9658 46.875 29.1372 46.5113 27.431 45.8046C25.7249 45.0979 24.1746 44.062 22.8688 42.7562C21.563 41.4504 20.5272 39.9001 19.8204 38.194C19.1137 36.4879 18.75 34.6592 18.75 32.8125C18.75 29.0829 20.2316 25.506 22.8688 22.8688C25.506 20.2316 29.0829 18.75 32.8125 18.75C36.5421 18.75 40.119 20.2316 42.7562 22.8688C45.3934 25.506 46.875 29.0829 46.875 32.8125ZM34.3 24.5625C34.2097 24.2373 34.0154 23.9507 33.7468 23.7465C33.4781 23.5423 33.15 23.4317 32.8125 23.4317C32.475 23.4317 32.1469 23.5423 31.8782 23.7465C31.6096 23.9507 31.4153 24.2373 31.325 24.5625L29.8344 29.35H25C23.4875 29.35 22.8562 31.3719 24.0812 32.3L27.9875 35.2594L26.4969 40.0469C26.0281 41.5469 27.6781 42.7969 28.9031 41.8688L32.8094 38.9094L36.7156 41.8688C37.9406 42.7969 39.5906 41.5469 39.1219 40.0469L37.6312 35.2594L41.5375 32.3C42.7625 31.3719 42.1313 29.35 40.6188 29.35H35.7875L34.3 24.5625Z" fill="#B01C32"/>
</svg>
