<svg width="50" height="50" viewBox="0 0 50 50" fill="none" xmlns="http://www.w3.org/2000/svg">
<path fill-rule="evenodd" clip-rule="evenodd" d="M43.275 27.4063L40.425 18.8563C40.0116 17.6114 39.2163 16.5286 38.1523 15.7615C37.0883 14.9944 35.8096 14.5822 34.4979 14.5834H15.5021C14.1904 14.5822 12.9117 14.9944 11.8477 15.7615C10.7837 16.5286 9.98843 17.6114 9.575 18.8563L6.725 27.4063C5.96713 27.7234 5.31992 28.2575 4.86472 28.9414C4.40953 29.6253 4.16667 30.4285 4.16667 31.25V37.5C4.16667 39.0375 5.00833 40.3667 6.25 41.0896V43.75C6.25 44.3026 6.46949 44.8325 6.86019 45.2232C7.2509 45.6139 7.7808 45.8334 8.33333 45.8334H10.4167C10.9692 45.8334 11.4991 45.6139 11.8898 45.2232C12.2805 44.8325 12.5 44.3026 12.5 43.75V41.6667H37.5V43.75C37.5 44.3026 37.7195 44.8325 38.1102 45.2232C38.5009 45.6139 39.0308 45.8334 39.5833 45.8334H41.6667C42.2192 45.8334 42.7491 45.6139 43.1398 45.2232C43.5305 44.8325 43.75 44.3026 43.75 43.75V41.0896C44.3821 40.7271 44.9074 40.2045 45.2732 39.5743C45.6389 38.9441 45.8321 38.2286 45.8333 37.5V31.25C45.8333 29.5188 44.7771 28.0375 43.275 27.4063ZM34.4958 18.75H15.5021C14.6062 18.75 13.8104 19.3229 13.525 20.175L11.2229 27.0834H38.7771L36.4729 20.175C36.3347 19.76 36.0693 19.399 35.7145 19.1433C35.3596 18.8875 34.9333 18.7499 34.4958 18.75ZM10.2621 37.2617C10.6413 37.4189 11.0478 37.4999 11.4583 37.5C12.2874 37.5003 13.0826 37.1712 13.6691 36.5852C14.2555 35.9991 14.5851 35.2041 14.5854 34.375C14.5857 33.5459 14.2566 32.7507 13.6706 32.1643C13.0845 31.5778 12.2895 31.2482 11.4604 31.2479C10.6313 31.2477 9.83611 31.5767 9.24967 32.1628C8.66322 32.7488 8.33361 33.5439 8.33333 34.3729C8.33306 35.202 8.66214 35.9972 9.24819 36.5837C9.53838 36.8741 9.88291 37.1044 10.2621 37.2617ZM36.3315 36.5837C36.9176 37.1701 37.7126 37.4997 38.5417 37.5C39.3707 37.5003 40.166 37.1712 40.7524 36.5852C41.3389 35.9991 41.6685 35.2041 41.6687 34.375C41.669 33.5459 41.3399 32.7507 40.7539 32.1643C40.1678 31.5778 39.3728 31.2482 38.5437 31.2479C37.7147 31.2477 36.9194 31.5767 36.333 32.1628C35.7466 32.7488 35.4169 33.5439 35.4167 34.3729C35.4164 35.202 35.7455 35.9972 36.3315 36.5837Z" fill="#B01C32"/>
<path d="M10.9938 10.4167C11.7167 11.6563 13.0458 12.5 14.5833 12.5C16.1208 12.5 17.45 11.6563 18.1729 10.4167H31.8292C32.55 11.6563 33.8792 12.5 35.4167 12.5C36.9542 12.5 38.2833 11.6563 39.0062 10.4167H35.4167V6.25002H39.0062C38.2833 5.01044 36.9542 4.16669 35.4167 4.16669C33.8792 4.16669 32.55 5.01044 31.8271 6.25002H18.1729C17.45 5.01044 16.1208 4.16669 14.5833 4.16669C13.0458 4.16669 11.7167 5.01044 10.9938 6.25002H14.5833V10.4167H10.9938Z" fill="#B01C32"/>
</svg>
