<svg width="50" height="50" viewBox="0 0 50 50" fill="none" xmlns="http://www.w3.org/2000/svg">
<path d="M41.5417 37.375C41.6254 36.7598 41.6254 36.1361 41.5417 35.5209L43.5625 34C43.6548 33.9329 43.7188 33.8339 43.7419 33.7221C43.765 33.6104 43.7456 33.494 43.6875 33.3959L41.7708 30.1459C41.6667 29.9375 41.375 29.8542 41.1667 29.9375L38.7708 30.875C38.2708 30.5209 37.75 30.2084 37.1458 29.9584L36.7917 27.4792C36.77 27.3679 36.7103 27.2677 36.6229 27.1955C36.5356 27.1233 36.4258 27.0837 36.3125 27.0834H32.4583C32.2083 27.0834 32 27.25 31.9583 27.4792L31.6042 29.9584C31 30.2084 30.4792 30.5209 29.9792 30.875L27.5833 29.9375C27.375 29.8542 27.0833 29.9375 27 30.1459L25.0625 33.3959C24.9375 33.6042 25 33.8542 25.1875 34L27.2083 35.5209C27.1875 35.8334 27.1458 36.1459 27.1458 36.4584C27.1458 36.7709 27.1875 37.0625 27.2083 37.375L25.1875 38.9167C25.0952 38.9838 25.0312 39.0829 25.0081 39.1946C24.985 39.3063 25.0044 39.4227 25.0625 39.5209L27 42.7709C27.0833 42.9792 27.375 43.0417 27.5833 42.9792L29.9792 42.0209C30.4792 42.3959 31 42.7084 31.6042 42.9584L31.9583 45.4375C32 45.6667 32.2083 45.8334 32.4583 45.8334H36.3125C36.5417 45.8334 36.75 45.6667 36.7917 45.4375L37.1458 42.9584C37.75 42.7084 38.2708 42.3959 38.7708 42.0209L41.1667 42.9792C41.375 43.0417 41.6667 42.9792 41.7708 42.7709L43.6875 39.5209C43.7456 39.4227 43.765 39.3063 43.7419 39.1946C43.7188 39.0829 43.6548 38.9838 43.5625 38.9167L41.5417 37.375ZM34.375 39.5834C32.6458 39.5834 31.25 38.1875 31.25 36.4584C31.25 34.7292 32.6458 33.3334 34.375 33.3334C36.1042 33.3334 37.5 34.7292 37.5 36.4584C37.5 38.1875 36.1042 39.5834 34.375 39.5834ZM18.75 4.16669C22.5 5.41669 25 8.95835 25 12.9167C25 17.0834 22.5 20.625 18.75 21.875V44.7917C18.75 45.4167 18.3333 45.8334 17.7083 45.8334H13.5417C12.9167 45.8334 12.5 45.4167 12.5 44.5834V21.6667C8.75 20.4167 6.25 16.875 6.25 12.9167C6.25 8.95835 8.75 5.41669 12.5 4.16669V11.875H18.75V4.16669Z" fill="#B01C32"/>
</svg>
