<svg width="41" height="41" viewBox="0 0 41 41" fill="none" xmlns="http://www.w3.org/2000/svg">
<path d="M20.5 0.8125C16.6062 0.8125 12.7998 1.96715 9.56222 4.13044C6.32463 6.29373 3.80123 9.3685 2.31113 12.9659C0.82103 16.5633 0.431152 20.5218 1.1908 24.3408C1.95045 28.1598 3.8255 31.6678 6.57884 34.4212C9.33219 37.1745 12.8402 39.0496 16.6592 39.8092C20.4782 40.5689 24.4367 40.179 28.0341 38.6889C31.6315 37.1988 34.7063 34.6754 36.8696 31.4378C39.0329 28.2002 40.1875 24.3938 40.1875 20.5C40.1875 15.2786 38.1133 10.271 34.4212 6.57884C30.729 2.88671 25.7215 0.8125 20.5 0.8125ZM30.9724 21.7586L14.0974 30.1961C13.8829 30.3033 13.6446 30.3538 13.4051 30.343C13.1656 30.3321 12.9329 30.2602 12.729 30.1341C12.5251 30.008 12.3569 29.8319 12.2402 29.6224C12.1236 29.413 12.0624 29.1772 12.0625 28.9375V12.0625C12.0626 11.8229 12.124 11.5873 12.2407 11.378C12.3575 11.1688 12.5258 10.9929 12.7296 10.8669C12.9335 10.741 13.1661 10.6692 13.4055 10.6584C13.6449 10.6476 13.883 10.6982 14.0974 10.8053L30.9724 19.2428C31.2056 19.3597 31.4018 19.5392 31.5388 19.7613C31.6759 19.9833 31.7485 20.2391 31.7485 20.5C31.7485 20.7609 31.6759 21.0167 31.5388 21.2387C31.4018 21.4608 31.2056 21.6403 30.9724 21.7572" fill="#B01C32"/>
</svg>
