<svg width="24" height="24" viewBox="0 0 24 24" fill="none" xmlns="http://www.w3.org/2000/svg">
<path d="M12.2891 14.3945L11.0444 13.9163C11.3778 13.0233 11.9444 12.0546 12.8378 11.0474L13.8291 11.9525C13.0404 12.842 12.5618 13.664 12.2891 14.3945Z" fill="#B01C32"/>
<path d="M7.5 12C7.5 13.8989 9.428 14.6537 10.9607 14.1491C10.2287 16.3483 10.7109 17.7571 11.3162 18.42L12.2942 17.5C12.0515 17.2348 11.692 16.4423 12.1527 14.8134C12.9573 16.3266 16.6667 16.5174 16.6667 13.6634L16 7C14.0796 8.64908 13.1888 8.96304 11.5 9.5C9.37867 10.1738 7.5 9.94421 7.5 12Z" fill="#B01C32"/>
<path d="M11.2756 19.4879L10.7623 18.9257C10.0669 18.1641 9.6234 16.8474 9.95291 15.0513C9.37538 15.0441 8.80205 14.9067 8.29979 14.6361C7.40115 14.1518 6.75 13.2448 6.75 12C6.75 11.369 6.89604 10.8262 7.22741 10.3859C7.55287 9.95336 7.99648 9.7012 8.43429 9.53211C8.86374 9.36625 9.35451 9.25641 9.81748 9.15361L11.2756 19.4879ZM11.2756 19.4879L11.8301 18.9663M11.2756 19.4879L11.8301 18.9663M11.8301 18.9663L12.8081 18.0463L13.3469 17.5394M11.8301 18.9663L13.3469 17.5394M13.3469 17.5394L12.8475 16.9937M13.3469 17.5394L12.8475 16.9937M12.8475 16.9937L12.8475 16.9936C12.8464 16.9924 12.8215 16.9634 12.7908 16.894C12.7599 16.824 12.7243 16.7159 12.702 16.5612C12.6898 16.4763 12.6816 16.3773 12.6804 16.2631C12.7583 16.3016 12.8373 16.3368 12.9167 16.3689C13.4928 16.6015 14.1582 16.6957 14.7983 16.621C15.439 16.5463 16.0986 16.2958 16.6045 15.7906C17.1223 15.2735 17.4167 14.5512 17.4167 13.6634V13.6259L17.4129 13.5887M12.8475 16.9937L17.4129 13.5887M17.4129 13.5887L16.7463 6.92534L16.603 5.49358M17.4129 13.5887L16.603 5.49358M16.603 5.49358L15.5114 6.431M16.603 5.49358L15.5114 6.431M15.5114 6.431C14.5761 7.23412 13.9215 7.68616 13.3161 8.00218M15.5114 6.431L13.3161 8.00218M13.3161 8.00218C12.7071 8.32006 12.1202 8.5158 11.273 8.78519M13.3161 8.00218L11.273 8.78519M11.273 8.78519C10.7982 8.93597 10.334 9.03899 9.87036 9.14187L11.273 8.78519ZM12.8149 14.4612L12.0967 13.1107L12.1436 12.97L12.04 13.0041L11.9388 12.8136L11.869 13.0604L10.7261 13.4367C10.1408 13.6294 9.49061 13.5739 9.01138 13.3156C8.56285 13.0739 8.25 12.654 8.25 12C8.25 11.6031 8.33879 11.4036 8.42597 11.2878C8.51904 11.1641 8.67769 11.0461 8.97471 10.9314C9.28009 10.8134 9.65674 10.7258 10.1426 10.6179C10.1654 10.6129 10.1884 10.6078 10.2116 10.6026C10.6638 10.5024 11.1868 10.3864 11.727 10.2148L11.7273 10.2147C12.5687 9.94721 13.2716 9.71749 14.0102 9.33191C14.4518 9.10142 14.8964 8.82066 15.3916 8.45293L15.9164 13.6984C15.9093 14.2167 15.7429 14.5311 15.5446 14.7292C15.3298 14.9437 15.0118 15.086 14.6245 15.1311C14.2367 15.1764 13.824 15.1176 13.4782 14.978C13.1256 14.8356 12.909 14.6382 12.8149 14.4612ZM11.3245 4.4665L12.0004 5.86787L12.6757 4.4662C13.776 2.18221 15.4648 0.75 17.6253 0.75C19.1879 0.75 20.5779 1.5554 21.6006 2.88078C22.6266 4.21044 23.25 6.02982 23.25 7.93094C23.25 11.9989 20.4634 15.5755 17.5018 18.2077C16.0383 19.5084 14.5714 20.5434 13.4689 21.2535C12.9184 21.6081 12.4606 21.8805 12.1422 22.0634C12.0872 22.0949 12.0364 22.1238 11.99 22.15C11.9451 22.1259 11.8961 22.0995 11.8432 22.0707C11.5256 21.8976 11.0687 21.6388 10.5192 21.2993C9.41855 20.6193 7.95412 19.6207 6.49323 18.3454C3.54276 15.7697 0.75 12.1924 0.75 7.93094C0.75 6.02911 1.37339 4.20977 2.39941 2.88033C3.4221 1.55519 4.81226 0.75 6.37533 0.75C8.535 0.75 10.2226 2.18195 11.3245 4.4665Z" stroke="#B01C32" stroke-width="1.5"/>
</svg>
