<svg width="24" height="24" viewBox="0 0 24 24" fill="none" xmlns="http://www.w3.org/2000/svg">
<g clip-path="url(#clip0_158_622)">
<path d="M18.943 8.91255L18.9453 8.91082L19.3385 9.47446L19.7537 10.0697L19.7543 10.0705C19.7832 10.1118 19.8294 10.2159 19.8502 10.3651C19.871 10.5145 19.8547 10.6259 19.8386 10.6718L19.8349 10.6823L19.8315 10.6929L18.6379 14.4545C18.6039 14.5473 18.5248 14.6924 18.407 14.8485C18.2863 15.0084 18.1655 15.126 18.0863 15.1824C18.0859 15.1826 18.0856 15.1828 18.0853 15.1831L6.81659 23.0858C6.81635 23.0859 6.81611 23.0861 6.81587 23.0863C6.62187 23.2214 6.48442 23.2506 6.42346 23.2497C6.3991 23.2493 6.38893 23.2447 6.38311 23.2416C6.3769 23.2382 6.35162 23.2234 6.3152 23.1719C6.31502 23.1716 6.31485 23.1714 6.31467 23.1711L1.19343 15.8437C1.19335 15.8436 1.19326 15.8435 1.19318 15.8434C1.19316 15.8434 1.19315 15.8433 1.19313 15.8433C1.12341 15.7432 1.09614 15.6195 1.11728 15.4993C1.13845 15.379 1.20638 15.272 1.30623 15.2016C1.30629 15.2016 1.30635 15.2016 1.30642 15.2015L12.5636 7.30805C12.8383 7.13594 13.1536 7.03935 13.4777 7.02811L17.2843 7.01139C17.3339 7.01304 17.4415 7.03622 17.5714 7.10515C17.7038 7.17543 17.7855 7.25412 17.8147 7.29559C17.8148 7.29576 17.8149 7.29593 17.8151 7.29611L18.4961 8.27214L18.943 8.91255Z" stroke="#B01C32" stroke-width="1.5"/>
</g>
<defs>
<clipPath id="clip0_158_622">
<rect width="24" height="24" fill="white"/>
</clipPath>
</defs>
</svg>
