<svg width="24" height="24" viewBox="0 0 24 24" fill="none" xmlns="http://www.w3.org/2000/svg">
<g clip-path="url(#clip0_158_629)">
<path fill-rule="evenodd" clip-rule="evenodd" d="M12 1.84175C11.8086 2.14344 11.6284 2.45209 11.4598 2.76709L11.3147 3.02939L11.2812 3.08967C11.1584 3.31068 10.9943 3.60982 10.7231 3.81521C10.4451 4.02617 10.1114 4.09984 9.87253 4.1523L9.80779 4.16681L9.52316 4.23044C9.00413 4.34875 8.68044 4.42354 8.46278 4.49944C8.59672 4.70148 8.82331 4.96825 9.18942 5.39688L9.38364 5.62235L9.42829 5.67481C9.59237 5.86457 9.81226 6.11906 9.91383 6.445C10.0143 6.7687 9.97969 7.10245 9.95401 7.35694L9.94732 7.42615L9.91718 7.72864C9.86472 8.26888 9.83347 8.61826 9.83347 8.86494C10.0489 8.78904 10.3425 8.65509 10.7912 8.4486L11.0568 8.32581L11.1182 8.29791C11.3392 8.1941 11.6517 8.04788 12 8.04788C12.3483 8.04788 12.6608 8.1941 12.8818 8.29791L12.9432 8.32581L13.2088 8.4486C13.6575 8.65509 13.9511 8.78904 14.1665 8.86494C14.1665 8.61826 14.1353 8.26888 14.0828 7.72864L14.0527 7.42726L14.046 7.35694C14.0203 7.10245 13.9868 6.76758 14.0873 6.445C14.1877 6.11906 14.4076 5.86457 14.5728 5.67481L14.6175 5.62235L14.8106 5.39688C15.1767 4.96825 15.4022 4.70148 15.5361 4.49944C15.3196 4.42354 14.9959 4.34875 14.4757 4.23155L14.1922 4.16681L14.1275 4.1523C13.8886 4.09984 13.5549 4.02617 13.278 3.81521C13.0057 3.60982 12.8416 3.31068 12.7199 3.08967L12.6865 3.02939L12.5402 2.76709C12.3716 2.45209 12.1914 2.14344 12 1.84175ZM10.7532 0.708793C10.9943 0.394022 11.3872 0 12 0C12.6139 0 13.0057 0.394022 13.2468 0.708793C13.479 1.01129 13.7156 1.43768 13.9734 1.89979L14.0025 1.95114L14.1476 2.21344L14.296 2.47017L14.3686 2.48915L14.5617 2.5338L14.8463 2.59742L14.9043 2.61082C15.4033 2.72355 15.8687 2.82848 16.2203 2.968C16.601 3.11758 17.0608 3.3877 17.2383 3.95808C17.4135 4.51954 17.1981 5.00397 16.9816 5.34888C16.7773 5.67258 16.4625 6.04093 16.121 6.44053L15.8899 6.71066L15.6935 6.94618C15.6957 7.00868 15.7035 7.09686 15.7203 7.26541L15.7538 7.62372C15.8062 8.1595 15.8542 8.64728 15.8364 9.03126C15.8185 9.43086 15.7247 9.96664 15.2504 10.3261C14.7615 10.6978 14.2156 10.6252 13.8283 10.5136C13.4656 10.4098 13.0302 10.21 12.5637 9.99455L12.509 9.96999L12.2433 9.84721L12 9.73782L11.9386 9.76461L11.7567 9.84721L11.491 9.96999L11.4363 9.99455C10.9698 10.21 10.5344 10.4098 10.1717 10.5136C9.78435 10.6252 9.23853 10.6978 8.75076 10.3261C8.27526 9.96664 8.1815 9.43086 8.16364 9.03126C8.14578 8.64728 8.19378 8.1595 8.24512 7.62483L8.2507 7.56679L8.28084 7.26541C8.29245 7.15927 8.30101 7.05281 8.30651 6.94618L8.24289 6.86693L8.11118 6.71066L7.91696 6.48407L7.87901 6.44053C7.53745 6.04093 7.22269 5.67258 7.01954 5.34888C6.80188 5.00397 6.58646 4.51954 6.7617 3.95808C6.93917 3.38881 7.39905 3.11758 7.77967 2.968C8.13127 2.82848 8.59672 2.72355 9.09678 2.61082L9.1537 2.59742L9.43833 2.5338L9.7051 2.47017L9.74975 2.39315L9.85133 2.21456L9.99755 1.95114L10.0266 1.89979C10.2833 1.43768 10.5222 1.01129 10.7532 0.708793ZM3.07044 7.75989C3.12849 7.86705 3.25238 8.08694 3.45665 8.23986C3.6743 8.4073 3.93661 8.46311 4.046 8.48543L4.0739 8.49101L4.09623 8.49659L4.06051 8.53901L4.04042 8.56133C3.96452 8.64951 3.79262 8.84373 3.71449 9.09711C3.63635 9.34826 3.66426 9.60499 3.67765 9.72219C3.67765 9.73335 3.67877 9.74377 3.681 9.75344V9.76572C3.49175 9.66798 3.28329 9.6131 3.07044 9.60499C2.80256 9.60499 2.56481 9.71549 2.45877 9.76572L2.461 9.75344L2.46435 9.72219C2.47663 9.60499 2.50453 9.34826 2.4264 9.09711C2.34827 8.84373 2.17637 8.64951 2.10047 8.56133L2.08038 8.53901L2.04354 8.49659L2.06587 8.49101L2.09489 8.48543C2.20316 8.46311 2.46658 8.4073 2.68536 8.23986C2.84656 8.10924 2.97787 7.94557 3.07044 7.75989ZM2.11498 6.10009C2.25897 5.91145 2.56369 5.58105 3.07044 5.58105C3.5772 5.58105 3.88303 5.91145 4.02591 6.09897C4.16097 6.27645 4.29379 6.5142 4.41657 6.73298L4.43667 6.77093L4.49248 6.86916L4.58624 6.89037L4.62977 6.90041C4.86417 6.95287 5.12647 7.01203 5.33297 7.09352C5.5696 7.18728 5.94464 7.38931 6.08975 7.85477C6.23151 8.3113 6.04733 8.68858 5.91562 8.89731C5.76843 9.11383 5.60618 9.31972 5.43008 9.51346L5.3486 9.60945L5.36199 9.7434L5.36534 9.78693C5.39101 10.0392 5.41668 10.3116 5.40664 10.5348C5.39548 10.7714 5.33743 11.2012 4.949 11.4958C4.54494 11.8017 4.10627 11.7269 3.86964 11.6588C3.62255 11.5789 3.38188 11.4804 3.14969 11.3641L3.07044 11.3295L2.99119 11.3664L2.94989 11.3842C2.72996 11.4909 2.50326 11.583 2.27125 11.6599C2.03462 11.728 1.59595 11.8028 1.193 11.497C0.802337 11.2023 0.744294 10.7725 0.734249 10.5348C0.723087 10.3116 0.750992 10.0403 0.775548 9.78693L0.778896 9.74451L0.792291 9.61057L0.710809 9.51458L0.681788 9.48109C0.516887 9.29719 0.364377 9.10254 0.225264 8.89843C0.093553 8.6897 -0.0906191 8.31242 0.0511376 7.85589C0.196243 7.39043 0.571284 7.18839 0.806801 7.09463C1.05061 7.00817 1.30061 6.94026 1.55465 6.89148L1.64953 6.86916L1.70422 6.77205L1.72543 6.7341C1.84821 6.51532 1.97992 6.27645 2.11498 6.10009ZM20.9296 7.75878C20.9876 7.86593 21.1115 8.08583 21.3158 8.23875C21.4992 8.36922 21.7106 8.4552 21.933 8.48989L21.9553 8.49548L21.9196 8.53789L21.8995 8.56022C21.7558 8.71495 21.6449 8.89721 21.5736 9.096C21.4955 9.34714 21.5234 9.60387 21.5368 9.72107C21.5368 9.73224 21.5379 9.74266 21.5401 9.75233V9.76461C21.3508 9.66725 21.1423 9.61276 20.9296 9.60499C20.6617 9.60499 20.4239 9.71549 20.319 9.76572V9.75344L20.3223 9.72219C20.3524 9.51348 20.3398 9.30085 20.2855 9.09711C20.2142 8.89833 20.1033 8.71607 19.9596 8.56133L19.9395 8.53901L19.9027 8.49659L19.925 8.49101L19.954 8.48543C20.0623 8.46311 20.3257 8.4073 20.5434 8.23986C20.7476 8.08694 20.8715 7.86593 20.9296 7.75878ZM19.9741 6.09897C20.1181 5.91145 20.4228 5.58105 20.9296 5.58105C21.4363 5.58105 21.741 5.91145 21.885 6.09897C22.0201 6.27645 22.1529 6.5142 22.2757 6.73298L22.2958 6.77093L22.3516 6.86916L22.4453 6.89037L22.4889 6.90041C22.7233 6.95287 22.9867 7.01203 23.1921 7.09352C23.4287 7.18728 23.8038 7.38931 23.9489 7.85477C24.0906 8.3113 23.9064 8.68858 23.7747 8.89731C23.6553 9.08595 23.4789 9.29133 23.3171 9.48109L23.2892 9.51458L23.2077 9.60945L23.2211 9.7434L23.2245 9.78693C23.249 10.0392 23.2758 10.3116 23.2658 10.5348C23.2546 10.7714 23.1965 11.2012 22.8081 11.4958C22.404 11.8017 21.9654 11.7269 21.7288 11.6588C21.5156 11.5974 21.2711 11.4847 21.0501 11.3831C21.0367 11.3779 21.0229 11.3716 21.0088 11.3641L20.9296 11.3295L20.8503 11.3664L20.809 11.3842C20.5891 11.4909 20.3624 11.583 20.1304 11.6599C19.8937 11.728 19.4551 11.8028 19.0521 11.497C18.6614 11.2023 18.6034 10.7725 18.5934 10.5348C18.5822 10.3116 18.6101 10.0403 18.6347 9.78693L18.638 9.74451L18.6514 9.61057L18.5699 9.51458L18.5409 9.48109C18.376 9.29719 18.2235 9.10254 18.0844 8.89843C17.9538 8.6897 17.7685 8.31242 17.9102 7.85589C18.0554 7.39043 18.4304 7.18839 18.6659 7.09463C18.9097 7.00817 19.1597 6.94026 19.4138 6.89148L19.5086 6.86916L19.5633 6.77205L19.5845 6.7341C19.7073 6.51532 19.839 6.27533 19.9741 6.09897ZM8.2987 14.7329C10.3815 14.3299 12.6106 14.4203 14.4154 15.4963C14.6677 15.647 14.9066 15.8357 15.1131 16.0678C15.5328 16.54 15.7493 17.1249 15.7593 17.712C15.9722 17.5736 16.1868 17.4222 16.4034 17.2577L18.4215 15.7341C18.9271 15.363 19.5378 15.163 20.165 15.163C20.7921 15.163 21.4029 15.363 21.9085 15.7341C22.8405 16.4373 23.2133 17.702 22.5447 18.7735C22.0703 19.5337 21.3548 20.5863 20.6282 21.2605C19.8915 21.9413 18.8456 22.5151 18.0542 22.8968C17.0921 23.3612 16.054 23.6179 15.0439 23.7809C12.9789 24.1157 10.8313 24.0644 8.79094 23.6436C7.7387 23.4272 6.6673 23.3176 5.59304 23.3165H3.07044C2.84842 23.3165 2.63549 23.2283 2.47849 23.0713C2.3215 22.9143 2.2333 22.7014 2.2333 22.4794C2.2333 22.2573 2.3215 22.0444 2.47849 21.8874C2.63549 21.7304 2.84842 21.6422 3.07044 21.6422H5.59304C6.77844 21.6422 7.97612 21.7661 9.12915 22.0039C10.9889 22.3855 12.9024 22.4275 14.7771 22.1278C15.7013 21.9782 16.5652 21.7561 17.3265 21.3888C18.0888 21.0205 18.9461 20.536 19.4897 20.0326C20.0399 19.5225 20.655 18.6396 21.1249 17.8873C21.2666 17.6596 21.2466 17.3325 20.8994 17.0702C20.4864 16.7577 19.8424 16.7577 19.4305 17.0702L17.4124 18.5938C16.6088 19.2022 15.6165 19.8529 14.3875 20.0494C14.2588 20.0697 14.1297 20.0876 14.0002 20.1029C13.9362 20.1141 13.8696 20.1215 13.8004 20.1253C13.0833 20.1949 12.3611 20.1949 11.6439 20.1253C11.5328 20.1172 11.4243 20.087 11.3249 20.0365C11.2256 19.986 11.1373 19.9161 11.0653 19.831C10.9933 19.7459 10.9391 19.6473 10.9057 19.5409C10.8723 19.4345 10.8605 19.3226 10.871 19.2116C10.8815 19.1006 10.914 18.9928 10.9667 18.8946C11.0194 18.7964 11.0912 18.7097 11.1778 18.6395C11.2645 18.5694 11.3643 18.5173 11.4713 18.4863C11.5784 18.4552 11.6906 18.4459 11.8013 18.4588C12.4205 18.5187 13.0441 18.5176 13.6631 18.4554L13.6966 18.4521C13.8008 18.3874 13.8893 18.3005 13.9557 18.1975C14.0222 18.0945 14.065 17.9781 14.081 17.8566C14.097 17.7351 14.0859 17.6115 14.0483 17.4948C14.0108 17.3781 13.9479 17.2712 13.864 17.1818C13.7745 17.0845 13.6711 17.001 13.5571 16.934C12.2389 16.1471 10.4775 16.0165 8.61681 16.3759C6.79915 16.7408 5.07606 17.476 3.55487 18.5358C3.3737 18.6643 3.14891 18.7155 2.92995 18.6783C2.711 18.641 2.51581 18.5183 2.38733 18.3371C2.25885 18.1559 2.20761 17.9311 2.24487 17.7122C2.28213 17.4932 2.40484 17.298 2.58602 17.1695C4.30197 15.9723 6.24689 15.1427 8.2987 14.7329Z" fill="#B01C32"/>
</g>
<defs>
<clipPath id="clip0_158_629">
<rect width="24" height="24" fill="white"/>
</clipPath>
</defs>
</svg>
