<svg width="24" height="24" viewBox="0 0 24 24" fill="none" xmlns="http://www.w3.org/2000/svg">
<g clip-path="url(#clip0_158_592)">
<path d="M23.8499 10.65C23.8499 8.4 21.7499 7.5 20.5499 7.5H17.2499C17.8499 6 18.2999 4.2 17.9999 2.85C17.2499 0.15 14.9999 0 14.2499 0H14.0999C13.4999 0 13.1999 0.3 12.8999 0.75L11.3999 4.95L7.34988 9H-0.150124V22.5H7.34988V21C7.64988 21 8.39988 21.45 9.14988 21.9C10.9499 22.8 13.4999 24.15 15.8999 24.15C19.4999 24.15 20.6999 23.7 21.5999 22.2C22.0499 21.3 22.0499 20.55 22.0499 20.1C22.3499 19.8 22.7999 19.35 22.9499 18.6C23.0999 17.85 23.0999 17.4 22.9499 16.95C23.2499 16.5 23.5499 15.9 23.6999 15C23.6999 14.25 23.5499 13.65 23.3999 13.2C23.5499 12.6 23.8499 11.85 23.8499 10.65ZM3.59988 20.25C2.69988 20.25 2.09988 19.65 2.09988 18.75C2.09988 17.85 2.69988 17.25 3.59988 17.25C4.49988 17.25 5.09988 17.85 5.09988 18.75C5.09988 19.65 4.49988 20.25 3.59988 20.25ZM21.5999 13.5C21.5999 13.5 22.1999 13.95 22.1999 14.7C22.1999 15.6 21.4999 16 21.4999 16L20.9999 16.5L21.4999 17C21.4999 17 21.7499 17.4 21.4499 18C21.2999 18.6 20.6999 19.05 20.6999 19.05L20.2499 19.5L20.5499 20.1C20.5499 20.1 20.8499 20.7 20.3999 21.45C20.0999 22.05 19.7999 22.2 16.0499 22.2C13.9499 22.2 11.5499 21 9.89988 20.1C8.69988 19.5 7.94988 19.2 7.34988 19.2L7.49988 10.65H7.64988C7.94987 10.65 8.24988 10.5 8.54988 10.35L12.4999 6C12.7999 6 12.8999 5.85 13.0499 5.7L14.5499 1.65C15.2999 1.65 16.0999 1.95 16.3999 3.3C16.5499 4.2 16.2499 5.7 15.4999 7.5C15.3499 7.95 15.3499 8.25 15.6499 8.7C15.7999 9 16.2499 9.15 16.6999 9.15L20.5499 9C20.6999 9 22.3499 9.3 22.3499 10.65C22.3499 11.85 21.5999 12.3 21.5999 12.3L21.1499 12.9L21.5999 13.5Z" fill="#B01C32"/>
</g>
<defs>
<clipPath id="clip0_158_592">
<rect width="24" height="24" fill="white"/>
</clipPath>
</defs>
</svg>
