<svg width="30" height="30" viewBox="0 0 30 30" fill="none" xmlns="http://www.w3.org/2000/svg">
<path d="M23.25 25.5001H15.6C15.845 25.0241 16.0415 24.5241 16.1895 24.0001H23.25C23.4256 24.0002 23.5955 23.9387 23.7304 23.8263C23.8653 23.7139 23.9564 23.5578 23.988 23.3851L24 23.2501V16.5001C24.0001 16.3246 23.9386 16.1546 23.8262 16.0197C23.7138 15.8849 23.5577 15.7937 23.385 15.7621L23.25 15.7501H15.75V18.3091C15.3743 17.4923 14.8676 16.7424 14.25 16.0891V15.7501H13.9125C13.2592 15.1325 12.5093 14.6258 11.6925 14.2501H14.25V6.75011C14.2502 6.59712 14.2036 6.44773 14.1165 6.32199C14.0293 6.19624 13.9058 6.10015 13.7625 6.04661L13.635 6.01211L13.5 6.00011H6.75001C6.57447 6.00005 6.40448 6.06156 6.26962 6.17394C6.13477 6.28632 6.04361 6.44244 6.01201 6.61511L6.00001 6.75011V13.8106C5.47701 13.9596 4.97701 14.1561 4.50001 14.4001V6.75011C4.50004 6.19078 4.70839 5.65152 5.08444 5.23748C5.46049 4.82344 5.97727 4.5643 6.53401 4.51061L6.75001 4.50011H13.5C14.0591 4.5001 14.5982 4.70824 15.0122 5.08398C15.4262 5.45972 15.6855 5.97614 15.7395 6.53261L15.75 6.75011V7.13111L19.0335 3.72761C19.4205 3.32625 19.9427 3.08286 20.4989 3.04461C21.0551 3.00636 21.6057 3.17599 22.044 3.52061L22.218 3.67211L26.355 7.75961C26.7519 8.15232 26.9886 8.67856 27.019 9.23605C27.0495 9.79354 26.8717 10.3425 26.52 10.7761L26.3655 10.9501L22.9005 14.2501H23.25C23.8094 14.2497 24.3488 14.4577 24.7631 14.8335C25.1774 15.2093 25.4369 15.7259 25.491 16.2826L25.5 16.5001V23.2501C25.5 23.8092 25.2919 24.3483 24.9161 24.7623C24.5404 25.1763 24.024 25.4356 23.4675 25.4896L23.25 25.5001ZM15.75 11.5651V14.2501H18.435L15.75 11.5651ZM4.59901 17.1631C4.70704 17.5481 4.73703 17.9507 4.68722 18.3474C4.63741 18.7441 4.50881 19.1269 4.30897 19.4732C4.10914 19.8194 3.84209 20.1223 3.52354 20.3639C3.20499 20.6055 2.84136 20.781 2.45401 20.8801L1.76101 21.0571C1.71093 21.5642 1.71596 22.0751 1.77601 22.5811L2.30101 22.7056C2.69871 22.7997 3.07299 22.974 3.40091 23.2178C3.72883 23.4617 4.00346 23.77 4.20796 24.1238C4.41247 24.4776 4.54253 24.8695 4.59017 25.2754C4.63781 25.6812 4.60203 26.0926 4.48501 26.4841L4.29451 27.1171C4.68151 27.4241 5.09901 27.6831 5.54701 27.8941L6.03451 27.3781C6.31516 27.0809 6.65358 26.8442 7.029 26.6826C7.40441 26.5209 7.80891 26.4377 8.21766 26.4379C8.62641 26.4382 9.03079 26.522 9.40598 26.6842C9.78118 26.8464 10.1193 27.0835 10.3995 27.3811L10.905 27.9181C11.345 27.7151 11.756 27.4661 12.138 27.1711L11.904 26.3371C11.7958 25.9521 11.7656 25.5493 11.8153 25.1524C11.865 24.7555 11.9935 24.3726 12.1934 24.0261C12.3933 23.6797 12.6604 23.3767 12.979 23.1349C13.2977 22.8932 13.6615 22.7177 14.049 22.6186L14.739 22.4431C14.7892 21.9356 14.7842 21.4241 14.724 20.9176L14.202 20.7946C13.8042 20.7006 13.4297 20.5262 13.1017 20.2823C12.7736 20.0383 12.4989 19.7298 12.2944 19.3759C12.0899 19.0219 11.9598 18.6298 11.9123 18.2238C11.8648 17.8177 11.9008 17.4063 12.018 17.0146L12.207 16.3831C11.8206 16.0766 11.4004 15.8154 10.9545 15.6046L10.467 16.1206C10.1865 16.4179 9.84813 16.6547 9.47277 16.8165C9.09741 16.9783 8.69294 17.0617 8.28419 17.0615C7.87544 17.0614 7.47103 16.9777 7.09578 16.8157C6.72053 16.6536 6.38236 16.4166 6.10201 16.1191L5.59651 15.5821C5.15948 15.7839 4.74641 16.0339 4.36501 16.3276L4.59901 17.1631ZM8.25001 23.2501C7.85219 23.2501 7.47066 23.0921 7.18935 22.8108C6.90805 22.5295 6.75001 22.1479 6.75001 21.7501C6.75001 21.3523 6.90805 20.9708 7.18935 20.6894C7.47066 20.4081 7.85219 20.2501 8.25001 20.2501C8.64784 20.2501 9.02937 20.4081 9.31067 20.6894C9.59198 20.9708 9.75001 21.3523 9.75001 21.7501C9.75001 22.1479 9.59198 22.5295 9.31067 22.8108C9.02937 23.0921 8.64784 23.2501 8.25001 23.2501Z" fill="#B01C32"/>
</svg>
