<svg width="711" height="187" viewBox="0 0 711 187" fill="none" xmlns="http://www.w3.org/2000/svg">
<path d="M5 187C5 187 60.1854 153.671 96.8495 143.446C131.961 133.654 152.765 146.134 187.706 134.557C222.134 123.151 238.683 97.1687 273.101 85.6704C306.712 74.4418 326.712 85.4682 360.482 75.893C394.296 66.3054 411.294 42.468 445.381 36.7833C481.391 30.778 501.781 56.3441 537.727 49.2273C572.3 42.3823 588.694 12.7796 623.122 3.89559C657.09 -4.86949 711 3.89559 711 3.89559V175C711 181.627 705.627 187 699 187H187.706H96.8495H5Z" fill="#F6F7F8"/>
<path d="M0 187C0 187 55.5762 159.018 92.5 150.433C127.86 142.212 148.811 152.69 184 142.971C218.672 133.394 235.338 111.58 270 101.926C303.849 92.4992 323.991 101.757 358 93.7176C392.053 85.6682 409.171 65.6549 443.5 60.8822C479.764 55.8404 500.299 77.3049 536.5 71.3298C571.318 65.583 587.828 40.7294 622.5 33.2706C656.708 25.9117 711 33.2706 711 33.2706V175C711 181.627 705.627 187 699 187H184H92.5H0Z" fill="url(#paint0_linear_2097_1056)"/>
<defs>
<linearGradient id="paint0_linear_2097_1056" x1="0" y1="108.5" x2="711" y2="108.5" gradientUnits="userSpaceOnUse">
<stop stop-color="#A5182D"/>
<stop offset="1" stop-color="#AC192F"/>
</linearGradient>
</defs>
</svg>
