<svg width="87" height="22" viewBox="0 0 87 22" fill="none" xmlns="http://www.w3.org/2000/svg">
<g clip-path="url(#clip0_164_784)">
<path d="M0 0H21.75V22H0V0Z" fill="#303540"/>
<path d="M8.66116 8.76056C7.45714 9.97842 7.45714 11.982 8.66116 13.1998C9.86518 14.4177 11.846 14.4177 13.05 13.1998C14.254 11.982 14.254 9.97842 13.05 8.76056C11.846 7.5427 9.90402 7.5427 8.66116 8.76056Z" fill="#FEFEFE"/>
<path d="M15.9241 6.12871V10.9608C15.9241 13.8287 13.6714 16.1073 10.8362 16.1073H6.05893C8.81652 18.7787 13.1277 18.7394 15.8076 15.9894C18.4875 13.2787 18.5263 8.91799 15.9241 6.12871ZM5.8259 11.0394C5.8259 8.17156 8.07858 5.89299 10.9138 5.89299H15.6911C12.9335 3.22156 8.62233 3.26085 5.94241 6.01085C3.2625 8.76085 3.22366 13.1216 5.8259 15.8716V11.0394Z" fill="white"/>
<path d="M21.75 0H87V22H21.75V0Z" fill="#2E6BE5"/>
<path d="M32.7415 11.9036C31.3433 11.5107 30.2946 10.3714 30.2946 8.72143C30.2946 6.67857 31.9647 5.5 33.7513 5.5H42.2571V7.975H37.2857V9.9H41.1308V12.2964H37.2857V15.7143H34.6446V7.89643H33.7125C33.2853 7.89643 32.7804 8.17143 32.7804 8.72143C32.7804 9.15357 33.0522 9.42857 33.4018 9.58571L32.7415 11.9036ZM43.5 15.7143V5.5H46.2188V15.7143H43.5ZM50.9183 8.01429C52.938 8.01429 54.375 8.99643 54.375 11.0393V15.7143H52.0835V14.9286C51.6563 15.7143 50.6853 15.95 49.7531 15.95C48.1219 15.95 47.1897 14.7714 47.1897 13.4357C47.1897 12.2964 48.083 10.9214 50.2969 10.9214H51.8893V10.8036C51.8893 9.93929 51.5786 9.625 50.8795 9.625C50.258 9.625 49.8696 9.93929 49.8308 10.5286H47.5005C47.617 9.075 48.7821 8.01429 50.9183 8.01429ZM51.9281 12.8464V12.4143H50.8018C50.1415 12.4143 49.6366 12.7679 49.6366 13.2786C49.6366 13.8286 50.025 14.1036 50.6853 14.1036C51.4621 14.1036 51.9281 13.5536 51.9281 12.8464ZM62.2982 9.35C62.8031 8.40714 63.5411 8.05357 64.5121 8.05357C66.3763 8.05357 67.192 9.23214 67.192 11.1179V15.7143H64.6674V11.6286C64.6674 10.7643 64.5121 10.2536 63.7741 10.2536C62.9585 10.2536 62.7254 10.8821 62.7254 11.7071V15.7143H60.2009V11.6286C60.2009 10.7643 60.0067 10.2536 59.2299 10.2536C58.4143 10.2536 58.1424 10.9607 58.1424 11.825V15.7536H55.5402V8.25H57.9871V9.35C58.492 8.28929 59.3853 8.01429 60.2009 8.01429C61.1719 8.01429 61.871 8.40714 62.2982 9.35ZM70.8429 9.27143C71.3478 8.32857 72.2799 8.01429 73.1732 8.01429C75.1152 8.01429 76.2804 9.66429 76.2804 11.9821C76.2804 14.3393 75.0763 15.95 73.1732 15.95C72.2799 15.95 71.3866 15.675 70.9205 14.9286V18.4643H68.3571V8.25H70.8429V9.27143ZM72.2411 13.9071C73.3286 13.9071 73.7558 13.0036 73.7558 11.9821C73.7558 10.9607 73.3674 10.0964 72.2411 10.0964C71.1924 10.0964 70.7263 10.9607 70.7263 11.9821C70.7652 13.0036 71.1924 13.9071 72.2411 13.9071Z" fill="white"/>
</g>
<defs>
<clipPath id="clip0_164_784">
<rect width="87" height="22" fill="white"/>
</clipPath>
</defs>
</svg>
