<svg width="67" height="58" viewBox="0 0 67 58" fill="none" xmlns="http://www.w3.org/2000/svg">
<circle cx="2" cy="2" r="2" fill="#454545"/>
<circle cx="11" cy="2" r="2" fill="#454545"/>
<circle cx="20" cy="2" r="2" fill="#454545"/>
<circle cx="29" cy="2" r="2" fill="#454545"/>
<circle cx="38" cy="2" r="2" fill="#454545"/>
<circle cx="47" cy="2" r="2" fill="#454545"/>
<circle cx="56" cy="2" r="2" fill="#454545"/>
<circle cx="65" cy="2" r="2" fill="#454545"/>
<circle cx="2" cy="11" r="2" fill="#454545"/>
<circle cx="11" cy="11" r="2" fill="#454545"/>
<circle cx="20" cy="11" r="2" fill="#454545"/>
<circle cx="29" cy="11" r="2" fill="#454545"/>
<circle cx="38" cy="11" r="2" fill="#454545"/>
<circle cx="47" cy="11" r="2" fill="#454545"/>
<circle cx="56" cy="11" r="2" fill="#454545"/>
<circle cx="65" cy="11" r="2" fill="#454545"/>
<circle cx="2" cy="20" r="2" fill="#454545"/>
<circle cx="11" cy="20" r="2" fill="#454545"/>
<circle cx="20" cy="20" r="2" fill="#454545"/>
<circle cx="29" cy="20" r="2" fill="#454545"/>
<circle cx="38" cy="20" r="2" fill="#454545"/>
<circle cx="47" cy="20" r="2" fill="#454545"/>
<circle cx="56" cy="20" r="2" fill="#454545"/>
<circle cx="65" cy="20" r="2" fill="#454545"/>
<circle cx="2" cy="29" r="2" fill="#454545"/>
<circle cx="11" cy="29" r="2" fill="#454545"/>
<circle cx="20" cy="29" r="2" fill="#454545"/>
<circle cx="29" cy="29" r="2" fill="#454545"/>
<circle cx="38" cy="29" r="2" fill="#454545"/>
<circle cx="47" cy="29" r="2" fill="#454545"/>
<circle cx="56" cy="29" r="2" fill="#454545"/>
<circle cx="65" cy="29" r="2" fill="#454545"/>
<circle cx="2" cy="38" r="2" fill="#454545"/>
<circle cx="11" cy="38" r="2" fill="#454545"/>
<circle cx="20" cy="38" r="2" fill="#454545"/>
<circle cx="29" cy="38" r="2" fill="#454545"/>
<circle cx="38" cy="38" r="2" fill="#454545"/>
<circle cx="47" cy="38" r="2" fill="#454545"/>
<circle cx="56" cy="38" r="2" fill="#454545"/>
<circle cx="65" cy="38" r="2" fill="#454545"/>
<circle cx="2" cy="47" r="2" fill="#454545"/>
<circle cx="11" cy="47" r="2" fill="#454545"/>
<circle cx="20" cy="47" r="2" fill="#454545"/>
<circle cx="29" cy="47" r="2" fill="#454545"/>
<circle cx="38" cy="47" r="2" fill="#454545"/>
<circle cx="47" cy="47" r="2" fill="#454545"/>
<circle cx="56" cy="47" r="2" fill="#454545"/>
<circle cx="65" cy="47" r="2" fill="#454545"/>
<circle cx="2" cy="56" r="2" fill="#454545"/>
<circle cx="11" cy="56" r="2" fill="#454545"/>
<circle cx="20" cy="56" r="2" fill="#454545"/>
<circle cx="29" cy="56" r="2" fill="#454545"/>
<circle cx="38" cy="56" r="2" fill="#454545"/>
<circle cx="47" cy="56" r="2" fill="#454545"/>
<circle cx="56" cy="56" r="2" fill="#454545"/>
<circle cx="65" cy="56" r="2" fill="#454545"/>
</svg>
