<svg width="34" height="34" viewBox="0 0 34 34" fill="none" xmlns="http://www.w3.org/2000/svg">
<path d="M17 18.9835L10.0583 25.9251C9.79862 26.1849 9.46806 26.3147 9.06667 26.3147C8.66529 26.3147 8.33473 26.1849 8.07501 25.9251C7.81529 25.6654 7.68542 25.3349 7.68542 24.9335C7.68542 24.5321 7.81529 24.2015 8.07501 23.9418L15.0167 17.0001L8.07501 10.0585C7.81529 9.79874 7.68542 9.46819 7.68542 9.0668C7.68542 8.66541 7.81529 8.33485 8.07501 8.07513C8.33473 7.81541 8.66529 7.68555 9.06667 7.68555C9.46806 7.68555 9.79862 7.81541 10.0583 8.07513L17 15.0168L23.9417 8.07513C24.2014 7.81541 24.532 7.68555 24.9333 7.68555C25.3347 7.68555 25.6653 7.81541 25.925 8.07513C26.1847 8.33485 26.3146 8.66541 26.3146 9.0668C26.3146 9.46819 26.1847 9.79874 25.925 10.0585L18.9833 17.0001L25.925 23.9418C26.1847 24.2015 26.3146 24.5321 26.3146 24.9335C26.3146 25.3349 26.1847 25.6654 25.925 25.9251C25.6653 26.1849 25.3347 26.3147 24.9333 26.3147C24.532 26.3147 24.2014 26.1849 23.9417 25.9251L17 18.9835Z" fill="#B01C32"/>
</svg>
