<svg width="34" height="34" viewBox="0 0 34 34" fill="none" xmlns="http://www.w3.org/2000/svg">
<path d="M3.88571 5.9502H14.8143C15.394 5.9502 15.9499 6.17408 16.3598 6.57259C16.7697 6.97111 17 7.51161 17 8.0752C17 8.63878 16.7697 9.17928 16.3598 9.5778C15.9499 9.97631 15.394 10.2002 14.8143 10.2002H3.88571C3.30602 10.2002 2.75008 9.97631 2.34018 9.5778C1.93028 9.17928 1.7 8.63878 1.7 8.0752C1.7 7.51161 1.93028 6.97111 2.34018 6.57259C2.75008 6.17408 3.30602 5.9502 3.88571 5.9502ZM19.1857 22.9502H30.1143C30.694 22.9502 31.2499 23.1741 31.6598 23.5726C32.0697 23.9711 32.3 24.5116 32.3 25.0752C32.3 25.6388 32.0697 26.1793 31.6598 26.5778C31.2499 26.9763 30.694 27.2002 30.1143 27.2002H19.1857C18.606 27.2002 18.0501 26.9763 17.6402 26.5778C17.2303 26.1793 17 25.6388 17 25.0752C17 24.5116 17.2303 23.9711 17.6402 23.5726C18.0501 23.1741 18.606 22.9502 19.1857 22.9502ZM3.88571 14.4502H30.1143C30.694 14.4502 31.2499 14.6741 31.6598 15.0726C32.0697 15.4711 32.3 16.0116 32.3 16.5752C32.3 17.1388 32.0697 17.6793 31.6598 18.0778C31.2499 18.4763 30.694 18.7002 30.1143 18.7002H3.88571C3.30602 18.7002 2.75008 18.4763 2.34018 18.0778C1.93028 17.6793 1.7 17.1388 1.7 16.5752C1.7 16.0116 1.93028 15.4711 2.34018 15.0726C2.75008 14.6741 3.30602 14.4502 3.88571 14.4502Z" fill="#B01C32"/>
</svg>
