<svg width="14" height="11" viewBox="0 0 14 11" fill="none" xmlns="http://www.w3.org/2000/svg">
<path d="M4.95881 8.125L12.0213 1.0625C12.188 0.895833 12.3824 0.8125 12.6046 0.8125C12.8269 0.8125 13.0213 0.895833 13.188 1.0625C13.3546 1.22917 13.438 1.42722 13.438 1.65667C13.438 1.88611 13.3546 2.08389 13.188 2.25L5.54214 9.91667C5.37548 10.0833 5.18103 10.1667 4.95881 10.1667C4.73659 10.1667 4.54214 10.0833 4.37548 9.91667L0.792143 6.33333C0.625476 6.16667 0.545476 5.96889 0.552142 5.74C0.558809 5.51111 0.645753 5.31306 0.812976 5.14583C0.980198 4.97861 1.17825 4.89528 1.40714 4.89583C1.63603 4.89639 1.83381 4.97972 2.00048 5.14583L4.95881 8.125Z" fill="white"/>
</svg>
