<svg width="30" height="30" viewBox="0 0 30 30" fill="none" xmlns="http://www.w3.org/2000/svg">
<path d="M3.75 18.7499C3.75 22.1306 6.66563 25.5993 11.6663 26.1693C11.1281 25.505 10.6746 24.7762 10.3162 23.9999C7.27875 23.1243 5.625 20.8649 5.625 18.7499V17.8124C5.625 17.5638 5.72377 17.3253 5.89959 17.1495C6.0754 16.9737 6.31386 16.8749 6.5625 16.8749H9.76312C9.94937 16.2199 10.195 15.5949 10.5 14.9999H6.5625C5.81658 14.9999 5.10121 15.2963 4.57376 15.8237C4.04632 16.3512 3.75 17.0665 3.75 17.8124V18.7499ZM18.2812 7.96869C18.28 8.50494 18.2025 9.01744 18.0488 9.50619C17.1527 9.64957 16.2796 9.91057 15.4519 10.2824C16.0092 9.72028 16.3445 8.97558 16.396 8.18565C16.4474 7.39572 16.2116 6.61381 15.7319 5.98408C15.2523 5.35435 14.5611 4.91926 13.7859 4.75901C13.0107 4.59876 12.2037 4.72416 11.5136 5.1121C10.8236 5.50004 10.2971 6.12435 10.0311 6.86994C9.76517 7.61553 9.77773 8.43214 10.0665 9.1692C10.3552 9.90626 10.9007 10.5141 11.6023 10.8806C12.304 11.2472 13.1145 11.3477 13.8844 11.1637C13.1341 11.674 12.4545 12.2811 11.8631 12.9693C10.9263 12.7333 10.0746 12.239 9.40498 11.5426C8.73537 10.8462 8.2748 9.97576 8.07571 9.0304C7.87663 8.08505 7.94703 7.10278 8.27891 6.19549C8.61079 5.28819 9.19081 4.49234 9.95289 3.89857C10.715 3.3048 11.6285 2.93698 12.5894 2.83702C13.5503 2.73705 14.52 2.90895 15.3879 3.33314C16.2559 3.75733 16.9873 4.41676 17.4989 5.23631C18.0104 6.05587 18.2815 7.0026 18.2812 7.96869ZM28.125 19.6874C28.125 20.7955 27.9068 21.8927 27.4827 22.9163C27.0587 23.94 26.4372 24.8702 25.6537 25.6537C24.8702 26.4372 23.9401 27.0587 22.9164 27.4827C21.8927 27.9067 20.7955 28.1249 19.6875 28.1249C18.5795 28.1249 17.4823 27.9067 16.4586 27.4827C15.4349 27.0587 14.5048 26.4372 13.7213 25.6537C12.9378 24.8702 12.3163 23.94 11.8923 22.9163C11.4682 21.8927 11.25 20.7955 11.25 19.6874C11.25 17.4497 12.1389 15.3036 13.7213 13.7212C15.3036 12.1389 17.4497 11.2499 19.6875 11.2499C21.9253 11.2499 24.0714 12.1389 25.6537 13.7212C27.2361 15.3036 28.125 17.4497 28.125 19.6874ZM20.58 14.7374C20.5258 14.5423 20.4092 14.3704 20.2481 14.2478C20.0869 14.1253 19.89 14.0589 19.6875 14.0589C19.485 14.0589 19.2881 14.1253 19.1269 14.2478C18.9658 14.3704 18.8492 14.5423 18.795 14.7374L17.9006 17.6099H15C14.0925 17.6099 13.7137 18.8231 14.4487 19.3799L16.7925 21.1556L15.8981 24.0281C15.6169 24.9281 16.6069 25.6781 17.3419 25.1212L19.6856 23.3456L22.0294 25.1212C22.7644 25.6781 23.7544 24.9281 23.4731 24.0281L22.5788 21.1556L24.9225 19.3799C25.6575 18.8231 25.2787 17.6099 24.3713 17.6099H21.4725L20.58 14.7374Z" fill="#B01C32"/>
</svg>
