<svg width="30" height="30" viewBox="0 0 30 30" fill="none" xmlns="http://www.w3.org/2000/svg">
<g clip-path="url(#clip0_2029_1055)">
<path d="M20.0363 11.5866C20.0363 10.7344 19.7656 10.044 19.2241 9.51562C18.6825 8.98722 17.9702 8.72301 17.0871 8.72301H13.0882V14.4503H17.0871C17.9702 14.4503 18.6825 14.1861 19.2241 13.6577C19.7656 13.1293 20.0363 12.4389 20.0363 11.5866ZM22.9981 11.5866C22.9981 13.2315 22.4711 14.5739 21.4172 15.6136C20.3633 16.6534 19.0033 17.1733 17.3371 17.1733H13.0882V18.6818H19.399C19.5156 18.6818 19.6115 18.7202 19.6864 18.7969C19.7614 18.8736 19.7989 18.9716 19.7989 19.0909V20.7273C19.7989 20.8466 19.7614 20.9446 19.6864 21.0213C19.6115 21.098 19.5156 21.1364 19.399 21.1364H13.0882V23.5909C13.0882 23.7102 13.0486 23.8082 12.9695 23.8849C12.8903 23.9616 12.7966 24 12.6883 24H10.6014C10.4847 24 10.3889 23.9616 10.3139 23.8849C10.239 23.8082 10.2015 23.7102 10.2015 23.5909V21.1364H7.40221C7.28558 21.1364 7.18977 21.098 7.11479 21.0213C7.03981 20.9446 7.00232 20.8466 7.00232 20.7273V19.0909C7.00232 18.9716 7.03981 18.8736 7.11479 18.7969C7.18977 18.7202 7.28558 18.6818 7.40221 18.6818H10.2015V17.1733H7.40221C7.28558 17.1733 7.18977 17.1349 7.11479 17.0582C7.03981 16.9815 7.00232 16.8835 7.00232 16.7642V14.8594C7.00232 14.7486 7.03981 14.6527 7.11479 14.5717C7.18977 14.4908 7.28558 14.4503 7.40221 14.4503H10.2015V6.40909C10.2015 6.28977 10.239 6.19176 10.3139 6.11506C10.3889 6.03835 10.4847 6 10.6014 6H17.3371C19.0033 6 20.3633 6.51989 21.4172 7.55966C22.4711 8.59943 22.9981 9.94176 22.9981 11.5866Z" fill="#B01C32"/>
</g>
<defs>
<clipPath id="clip0_2029_1055">
<rect width="16" height="18" fill="white" transform="translate(7 6)"/>
</clipPath>
</defs>
</svg>
