<svg width="30" height="30" viewBox="0 0 30 30" fill="none" xmlns="http://www.w3.org/2000/svg">
<path d="M27.7503 5.161C27.6711 5.15297 19.784 4.32551 16.0774 1.16191L15.8145 0.9375H14.1855L13.9226 1.16191C10.2225 4.31994 2.32875 5.15297 2.25 5.161L1.40625 5.24602V6.09375C1.40625 11.3164 2.26424 15.7877 3.95643 19.3836C6.18914 24.1281 9.82166 27.2157 14.7533 28.5607L15 28.628L15.2467 28.5607C20.1782 27.2157 23.8109 24.1281 26.0436 19.3836C27.7358 15.7877 28.5938 11.3164 28.5938 6.09375V5.24602L27.7503 5.161ZM26.7111 6.92068C26.7019 7.42025 26.5065 7.13129 26.5065 7.7844H21.0391H15.9375V3.39346C19.4485 5.71184 24.6694 6.63498 26.7111 6.92068ZM15.9375 18.75H24.2734C23.8807 19.5667 23.0185 19.8817 22.5 20.625H16.0774L15.9375 18.75ZM15.9375 16.25V14.5312H25.7754C25.5638 15.3826 25.3049 16.2215 24.9998 17.044L25 16.25H15.9375ZM15.9375 12.1422V10.3125H26.5065C26.4245 11.0922 26.1832 11.3618 26.0436 12.1422H15.9375ZM4.375 7.5C6.41676 7.2143 10.5515 5.71184 14.0625 3.39334V25.625C5.50852 22.5878 4.5134 14.9575 4.375 7.5ZM15.9375 26.3803V22.9688H21.3485C19.9247 24.416 18.147 25.5959 15.9375 26.3803Z" fill="#B01C32"/>
</svg>
