<svg width="307" height="303" viewBox="0 0 307 303" fill="none" xmlns="http://www.w3.org/2000/svg">
<path d="M-43.7669 245.9C-43.7669 245.9 -3.42427 230.633 21.4913 209.313C46.5766 187.848 49.6923 140.561 75.8303 120.332C102.521 99.6758 153.371 103.494 181.113 84.3328C208.681 65.292 223.826 40.108 223.826 40.108" stroke="white" stroke-opacity="0.1"/>
<path d="M-48.7669 233.9C-48.7669 233.9 -8.42427 218.633 16.4913 197.313C41.5766 175.848 44.6923 128.561 70.8303 108.332C97.5214 87.6758 148.371 91.4936 176.113 72.3328C203.681 53.292 218.826 28.108 218.826 28.108" stroke="white" stroke-opacity="0.1"/>
<path d="M-57.7669 226.9C-57.7669 226.9 -17.4243 211.633 7.49132 190.313C32.5766 168.848 35.6923 121.561 61.8303 101.332C88.5214 80.6758 139.371 84.4936 167.113 65.3328C194.681 46.292 209.826 21.108 209.826 21.108" stroke="white" stroke-opacity="0.1"/>
<path d="M-32.9174 252.818C-32.9174 252.818 7.42528 237.551 32.3409 216.231C57.4261 194.766 60.5418 147.479 86.6799 127.25C113.371 106.594 164.221 110.412 191.962 91.2508C219.53 72.21 234.676 47.026 234.676 47.026" stroke="white" stroke-opacity="0.1"/>
<path d="M-22.0689 259.737C-22.0689 259.737 18.2737 244.469 43.1893 223.149C68.2746 201.684 71.3903 154.397 97.5283 134.169C124.219 113.512 175.069 117.33 202.811 98.169C230.379 79.1282 245.524 53.9442 245.524 53.9442" stroke="white" stroke-opacity="0.1"/>
<path d="M-11.2194 266.655C-11.2194 266.655 29.1233 251.387 54.0389 230.067C79.1241 208.602 82.2398 161.315 108.378 141.087C135.069 120.43 185.919 124.248 213.66 105.087C241.228 86.0462 256.374 60.8622 256.374 60.8622" stroke="white" stroke-opacity="0.1"/>
<path d="M-0.369817 273.573C-0.369817 273.573 39.9728 258.305 64.8884 236.985C89.9737 215.52 93.0894 168.233 119.227 148.005C145.919 127.348 196.768 131.166 224.51 112.005C252.078 92.9644 267.223 67.7804 267.223 67.7804" stroke="white" stroke-opacity="0.1"/>
<path d="M10.4797 280.491C10.4797 280.491 50.8223 265.223 75.7379 243.903C100.823 222.438 103.939 175.151 130.077 154.923C156.768 134.266 207.618 138.084 235.359 118.923C262.927 99.8824 278.073 74.6984 278.073 74.6984" stroke="white" stroke-opacity="0.1"/>
<path d="M21.3282 287.409C21.3282 287.409 61.6708 272.141 86.5864 250.822C111.672 229.356 114.787 182.07 140.925 161.841C167.617 141.184 218.466 145.002 246.208 125.841C273.776 106.801 288.921 81.6166 288.921 81.6166" stroke="white" stroke-opacity="0.1"/>
<path d="M32.1777 294.327C32.1777 294.327 72.5203 279.059 97.4359 257.739C122.521 236.274 125.637 188.988 151.775 168.759C178.466 148.102 229.316 151.92 257.057 132.759C284.625 113.719 299.771 88.5346 299.771 88.5346" stroke="white" stroke-opacity="0.1"/>
</svg>
